<svg width="20" height="20" viewBox="0 0 20 20" fill="none" xmlns="http://www.w3.org/2000/svg">
<path fill-rule="evenodd" clip-rule="evenodd" d="M10.5026 4.44426C10.5026 2.91092 11.7526 1.66676 13.2926 1.66676C13.6582 1.66588 14.0204 1.73703 14.3585 1.87613C14.6967 2.01524 15.0041 2.21959 15.2632 2.4775C15.5224 2.73542 15.7282 3.04185 15.8689 3.37931C16.0097 3.71676 16.0825 4.07863 16.0834 4.44426C16.0834 5.97842 14.8334 7.22259 13.2926 7.22259C12.9231 7.22304 12.5572 7.15005 12.2161 7.00785C11.875 6.86565 11.5657 6.65708 11.3059 6.39426L7.44342 9.02426C7.55099 9.56009 7.49823 10.1157 7.29175 10.6218L11.5267 13.4051C12.0256 12.9983 12.6498 12.7766 13.2934 12.7776C13.659 12.7768 14.0212 12.8481 14.3593 12.9873C14.6974 13.1265 15.0048 13.3309 15.2638 13.5889C15.5229 13.8469 15.7286 14.1534 15.8693 14.4909C16.0099 14.8284 16.0827 15.1903 16.0834 15.5559C16.0834 17.0893 14.8334 18.3334 13.2926 18.3334C12.5543 18.335 11.8457 18.0432 11.3225 17.5224C10.7993 17.0015 10.5043 16.2942 10.5026 15.5559C10.5019 15.1665 10.584 14.7813 10.7434 14.4259L6.54175 11.6668C6.03292 12.1092 5.38102 12.3522 4.70675 12.3509C4.3411 12.3518 3.97885 12.2806 3.64072 12.1414C3.30259 12.0023 2.99519 11.7978 2.73609 11.5398C2.47699 11.2818 2.27127 10.9753 2.13069 10.6377C1.9901 10.3002 1.9174 9.93824 1.91675 9.57259C1.91751 9.20701 1.99029 8.84516 2.13093 8.50771C2.27156 8.17025 2.4773 7.86381 2.73639 7.60589C2.99547 7.34796 3.30283 7.1436 3.64091 7.00449C3.97899 6.86537 4.34117 6.79421 4.70675 6.79509C5.59342 6.79509 6.38175 7.20592 6.89258 7.84592L10.6367 5.29676C10.5477 5.02137 10.5024 4.7337 10.5026 4.44426Z" fill="#303030"/>
</svg>
