<svg width="50" height="16" viewBox="0 0 50 16" fill="none" xmlns="http://www.w3.org/2000/svg">
<path fill-rule="evenodd" clip-rule="evenodd" d="M7.94382 1.73552C8.33691 1.73301 9.50515 1.62078 10 3.40222C10.3333 4.60222 10.8643 6.56788 11.5929 9.29919H11.8897C12.6711 6.41965 13.2078 4.454 13.5 3.40222C14 1.60222 15.25 1.73556 15.75 1.73556L19.6076 1.73556V14.5355H15.6758V6.9923H15.4122L13.2204 14.5355H10.2622L8.07045 6.98671H7.80679V14.5355H3.875V1.73556L7.94382 1.73552ZM25.2536 1.73556V9.28441H25.5672L28.2333 3.07705C28.7509 1.84176 29.8539 1.73556 29.8539 1.73556H33.6587V14.5356H29.6448V6.98671H29.3312L26.7173 13.1941C26.1998 14.4238 25.0445 14.5356 25.0445 14.5356H21.2397V1.73556H25.2536ZM47.5326 7.8182C46.9727 9.5106 45.2144 10.7226 43.2677 10.7226H39.0583V14.5356H35.2413V7.8182H47.5326Z" fill="#50BA1E"/>
<path fill-rule="evenodd" clip-rule="evenodd" d="M43.4519 1.73553H35.0413C35.2414 4.58525 37.5421 7.02479 39.9239 7.02479H47.7979C48.2523 4.65634 46.688 1.73553 43.4519 1.73553Z" fill="url(#paint0_linear_286_126)"/>
<defs>
<linearGradient id="paint0_linear_286_126" x1="1318.42" y1="334.452" x2="35.0413" y2="334.452" gradientUnits="userSpaceOnUse">
<stop stop-color="#1F5CD7"/>
<stop offset="1" stop-color="#02AEFF"/>
</linearGradient>
</defs>
</svg>
