<svg width="24" height="24" viewBox="0 0 24 24" fill="none" xmlns="http://www.w3.org/2000/svg">
<g clip-path="url(#clip0_256_48)">
<path d="M18 14.9467V17.304C18.0001 17.4728 17.9361 17.6353 17.8211 17.7588C17.706 17.8823 17.5484 17.9575 17.38 17.9693C17.0887 17.9893 16.8507 18 16.6667 18C10.7753 18 6 13.2247 6 7.33333C6 7.14933 6.01 6.91133 6.03067 6.62C6.04248 6.45163 6.11772 6.29401 6.2412 6.17894C6.36468 6.06387 6.52722 5.99992 6.696 6H9.05333C9.13603 5.99992 9.2158 6.03057 9.27715 6.08601C9.33851 6.14145 9.37706 6.21772 9.38533 6.3C9.40067 6.45333 9.41467 6.57533 9.428 6.668C9.56049 7.59262 9.832 8.49189 10.2333 9.33533C10.2967 9.46867 10.2553 9.628 10.1353 9.71333L8.69667 10.7413C9.5763 12.791 11.2097 14.4244 13.2593 15.304L14.286 13.868C14.328 13.8093 14.3892 13.7673 14.459 13.7491C14.5288 13.7309 14.6028 13.7379 14.668 13.7687C15.5113 14.1692 16.4104 14.4401 17.3347 14.572C17.4273 14.5853 17.5493 14.6 17.7013 14.6147C17.7835 14.6231 17.8596 14.6617 17.9149 14.7231C17.9702 14.7844 18.0008 14.8641 18.0007 14.9467H18Z" fill="white"/>
</g>
<defs>
<clipPath id="clip0_256_48">
<rect width="24" height="24" fill="white"/>
</clipPath>
</defs>
</svg>
