<svg width="24" height="24" viewBox="0 0 24 24" fill="none" xmlns="http://www.w3.org/2000/svg">
<path d="M17.075 15.6251C17.9523 15.6251 19.25 15.0451 19.25 13.4501C19.25 11.8551 17.9523 11.2751 17.075 11.2751H15.625V9.82506H17.075C18.67 9.82506 19.25 8.52729 19.25 7.65003C19.25 6.05501 17.9523 5.47501 17.075 5.47501H15.625V4.75H14.9V5.47501H9.09993V4.75H8.37492V5.47501H4.74988V6.92502H8.37492V8.37504H6.9249C6.04764 8.37504 4.74988 8.95505 4.74988 10.5501C4.74988 12.1451 6.04764 12.7251 6.9249 12.7251H8.37492V14.1751H6.9249C6.04764 14.1751 4.74988 14.7551 4.74988 16.3501C4.74988 17.9451 6.04764 18.5252 6.9249 18.5252H8.37492V19.2502H9.09993V18.5252H14.9V19.2502H15.625V18.5252H19.25V17.0751H15.625V15.6251H17.075ZM17.075 12.7251C17.4013 12.7251 17.8 12.8628 17.8 13.4501C17.8 14.0374 17.4013 14.1751 17.075 14.1751H15.625V12.7251H17.075ZM14.9 11.2751H9.09993V9.82506H14.9V11.2751ZM17.075 6.92502C17.4013 6.92502 17.8 7.07003 17.8 7.65003C17.8 7.97629 17.6623 8.37504 17.075 8.37504H15.625V6.92502H17.075ZM9.09993 6.92502H14.9V8.37504H9.09993V6.92502ZM6.9249 11.2751C6.59865 11.2751 6.19989 11.1373 6.19989 10.5501C6.19989 9.96281 6.59865 9.82506 6.9249 9.82506H8.37492V11.2751H6.9249ZM9.09993 12.7251H14.9V14.1751H9.09993V12.7251ZM6.9249 17.0751C6.59865 17.0751 6.19989 16.9374 6.19989 16.3501C6.19989 15.7629 6.59865 15.6251 6.9249 15.6251H8.37492V17.0751H6.9249ZM14.9 17.0751H9.09993V15.6251H14.9V17.0751Z" fill="white"/>
</svg>
