<svg width="24" height="24" viewBox="0 0 24 24" fill="none" xmlns="http://www.w3.org/2000/svg">
<path d="M10.2781 16.2929L10.2781 19.047L13.7212 19.0474L13.7212 5.96378L10.2776 5.96281L10.2781 8.02883L11.6551 8.02883L11.6551 9.40585L10.2776 9.40634L10.2776 11.4719L12.3432 11.4719L12.3441 12.8499L10.2786 12.8489L10.2786 14.9154L11.6561 14.9149L11.6556 16.2924L10.2781 16.2929ZM9.5896 4.58627L14.4102 4.58627C14.5928 4.5863 14.7679 4.65885 14.897 4.78796C15.0261 4.91708 15.0986 5.09219 15.0987 5.27478L15.0987 19.7364C15.0986 19.919 15.0261 20.0942 14.897 20.2233C14.7679 20.3524 14.5928 20.4249 14.4102 20.425L9.5896 20.425C9.49911 20.425 9.40949 20.4072 9.32588 20.3726C9.24226 20.338 9.16629 20.2873 9.1023 20.2233C9.03831 20.1593 8.98756 20.0833 8.95295 19.9997C8.91834 19.9161 8.90056 19.8265 8.90061 19.736L8.90109 5.27478C8.90112 5.09219 8.97367 4.91708 9.10279 4.78796C9.2319 4.65885 9.40701 4.5863 9.5896 4.58627Z" fill="white"/>
</svg>
