<svg width="50" height="16" viewBox="0 0 50 16" fill="none" xmlns="http://www.w3.org/2000/svg">
<path d="M21.9554 14.4043H18.6611L20.7216 1.63684H24.0157L21.9554 14.4043Z" fill="#00579F"/>
<path d="M33.8976 1.94896C33.2478 1.69063 32.2172 1.4054 30.9429 1.4054C27.6896 1.4054 25.3988 3.14385 25.3847 5.62933C25.3577 7.4631 27.0249 8.48163 28.2719 9.09307C29.5464 9.71787 29.9796 10.1257 29.9796 10.6826C29.9667 11.5379 28.9498 11.9322 28.0013 11.9322C26.6861 11.9322 25.9814 11.7289 24.9104 11.2531L24.4766 11.0491L24.0156 13.9151C24.7883 14.2678 26.2118 14.5809 27.6896 14.5946C31.1462 14.5946 33.3966 12.883 33.4233 10.2343C33.4364 8.78094 32.556 7.66728 30.6581 6.75725C29.5059 6.17307 28.8002 5.77916 28.8002 5.18144C28.8137 4.63806 29.397 4.0815 30.6977 4.0815C31.7686 4.05424 32.5555 4.31221 33.1516 4.57037L33.4496 4.70594L33.8976 1.94896Z" fill="#00579F"/>
<path d="M38.2758 9.88125C38.547 9.14778 39.591 6.30902 39.591 6.30902C39.5773 6.33628 39.8617 5.562 40.0244 5.08668L40.2546 6.1868C40.2546 6.1868 40.8785 9.24292 41.0139 9.88125C40.4991 9.88125 38.9264 9.88125 38.2758 9.88125ZM42.3421 1.63684H39.794C39.0082 1.63684 38.4112 1.86755 38.0722 2.69616L33.179 14.4041H36.6355C36.6355 14.4041 37.2046 12.8283 37.3269 12.4889C37.7061 12.4889 41.0687 12.4889 41.5565 12.4889C41.6511 12.9372 41.9496 14.4041 41.9496 14.4041H44.9998L42.3421 1.63684Z" fill="#00579F"/>
<path d="M15.9097 1.63684L12.6835 10.343L12.3309 8.57732C11.7345 6.53991 9.86387 4.32631 7.77637 3.22564L10.7314 14.3908H14.2151L19.3931 1.63684H15.9097Z" fill="#00579F"/>
<path d="M9.68765 1.63684H4.38747L4.33325 1.89481C8.46772 2.95431 11.2059 5.50821 12.3309 8.57786L11.1787 2.71006C10.989 1.89463 10.4061 1.66374 9.68765 1.63684Z" fill="#FAA61A"/>
</svg>
